<?xml version="1.0" encoding="UTF-8"?>
<svg version="1.1" xmlns="http://www.w3.org/2000/svg" width="365" height="311">
<path d="M0 0 C5.4569393 3.88692604 10.43006325 8.13707376 15.375 12.65234375 C18.85020343 15.76037539 22.45907157 18.68407205 26.08203125 21.6171875 C29.25417643 24.20756041 32.38036377 26.84690728 35.5 29.5 C41.275235 34.40576253 47.12175874 39.21799463 53 44 C54.72950867 45.41624911 56.45866817 46.83292473 58.1875 48.25 C64.751185 53.62028772 71.33563828 58.9649531 77.91943359 64.31054688 C80.61756367 66.50147155 83.31505115 68.69318637 86.01245117 70.88500977 C87.33677296 71.96109239 88.66115441 73.03710158 89.9855957 74.11303711 C93.39499565 76.88278262 96.80360757 79.65348948 100.2109375 82.42578125 C101.25701172 83.2765625 101.25701172 83.2765625 102.32421875 84.14453125 C103.63177391 85.20800945 104.93909085 86.27178065 106.24609375 87.3359375 C106.85324219 87.82964844 107.46039063 88.32335937 108.0859375 88.83203125 C108.66313632 89.31837225 109.24033514 89.80471325 109.83502483 90.30579185 C111.99594361 92.06587565 111.99594361 92.06587565 114.52603626 93.53156471 C118.66141669 96.23759756 121.51057446 98.3190946 122.92595482 103.18014145 C123.27811415 107.14241004 123.31603707 111.04227539 123.24291992 115.01318359 C123.25160957 116.52837108 123.26467714 118.04353878 123.2817688 119.55865479 C123.3155174 123.65409842 123.28795659 127.74705928 123.24880004 131.8423686 C123.21804348 136.13098593 123.24319082 140.41928205 123.26203918 144.70791626 C123.28601315 151.90209286 123.27423963 159.09544269 123.23657227 166.28955078 C123.18342721 176.44420216 123.19254438 186.59808223 123.21521986 196.75281024 C123.24262514 210.34655062 123.25117043 223.94065575 123.18964005 237.53430939 C123.18354657 239.00734746 123.1791077 240.48039341 123.17641258 241.95344162 C123.1722683 243.95793956 123.16112637 245.96241945 123.14958191 247.96688843 C123.14488986 249.09030325 123.14019781 250.21371807 123.13536358 251.37117577 C123 254 123 254 122 256 C118.02084841 256.02886984 114.04172347 256.04675406 110.0625 256.0625 C108.35803711 256.07506836 108.35803711 256.07506836 106.61914062 256.08789062 C105.53955078 256.09111328 104.45996094 256.09433594 103.34765625 256.09765625 C101.84730835 256.10551147 101.84730835 256.10551147 100.31665039 256.11352539 C98 256 98 256 97 255 C96.90223974 253.16365084 96.87535429 251.32350761 96.87542725 249.48455811 C96.87286423 248.28718521 96.87030121 247.08981232 96.86766052 245.8561554 C96.86973075 244.51705925 96.8718535 243.17796318 96.87402344 241.83886719 C96.87262947 240.43798262 96.87073069 239.03709847 96.86836243 237.63621521 C96.86385642 234.61216646 96.86200914 231.58813131 96.86190033 228.56407928 C96.8607625 223.78228802 96.84794219 219.00057443 96.83233643 214.21881104 C96.82976357 213.41261503 96.82719072 212.60641902 96.8245399 211.77579284 C96.81927299 210.12682591 96.81398751 208.47785904 96.80868387 206.82889223 C96.77354552 195.69206873 96.74702128 184.55534052 96.74951172 173.41845703 C96.75109997 165.91268361 96.73507071 158.40717367 96.69880509 150.90148473 C96.68033325 146.92788842 96.67101225 142.95473202 96.68328094 138.98110199 C96.69471484 135.24132119 96.68302187 131.50232752 96.65364647 127.76265144 C96.64383744 125.73709913 96.65877871 123.71147428 96.67445374 121.68595886 C96.88330145 114.63673011 96.88330145 114.63673011 93.60284424 108.76519775 C92.74390564 108.1826825 91.88496704 107.60016724 91 107 C90.24460937 106.36578125 89.48921875 105.7315625 88.7109375 105.078125 C87.94007813 104.47484375 87.16921875 103.8715625 86.375 103.25 C80.86295426 98.89752537 75.42950533 94.45478348 70 90 C68.16689838 88.49971683 66.33356573 86.99971592 64.5 85.5 C63.58992187 84.75492187 62.67984375 84.00984375 61.7421875 83.2421875 C59.93675589 81.7659514 58.12950859 80.29193264 56.3203125 78.8203125 C50.77311332 74.30215897 45.28806139 69.71879593 39.83642578 65.08642578 C35.54027727 61.44163292 31.1864945 57.87227136 26.81640625 54.31640625 C23.66214845 51.72212765 20.54795657 49.08395327 17.4375 46.4375 C12.0432998 41.84950474 6.56305557 37.38263294 1 33 C-2.76858764 34.30653125 -5.22821896 35.8364418 -8.125 38.5625 C-11.4233485 41.58870753 -14.77223168 44.49378398 -18.25 47.3125 C-22.37600822 50.66055974 -26.45233003 54.05828652 -30.5 57.5 C-35.34945237 61.62118024 -40.25161212 65.66991684 -45.1875 69.6875 C-48.31799666 72.26146392 -51.41172461 74.87569086 -54.5 77.5 C-59.34959381 81.62101634 -64.25160806 85.66991354 -69.1875 89.6875 C-73.86836755 93.53621332 -78.51590145 97.4357767 -83.06761456 101.43660831 C-85 103 -85 103 -87.703969 104.75802517 C-93.6635877 108.89289281 -93.6635877 108.89289281 -97.01683617 115.11911201 C-97.39246093 118.86520439 -97.42707011 122.47636966 -97.34057617 126.24047852 C-97.34734722 127.66053742 -97.35895604 129.08058016 -97.375 130.50056458 C-97.40472683 134.33170425 -97.36730053 138.15951821 -97.31726241 141.99033475 C-97.27645804 146.00225236 -97.2981602 150.01383592 -97.31306458 154.02586365 C-97.33183548 161.61219219 -97.29487425 169.19717105 -97.23759204 176.78326505 C-97.17508011 185.42423524 -97.17514769 194.06485656 -97.18031728 202.70600998 C-97.18955136 220.47120156 -97.11848092 238.23523248 -97 256 C-104.92 256 -112.84 256 -121 256 C-121.30139339 235.85048767 -121.53315717 215.70161526 -121.67355824 195.55031109 C-121.74049291 186.19283332 -121.83168278 176.83678474 -121.98071289 167.48022461 C-122.1106015 159.32151124 -122.19422869 151.16383305 -122.22315043 143.00411445 C-122.24004962 138.68597017 -122.27952828 134.37078622 -122.37449074 130.05359459 C-122.46331283 125.98224107 -122.48984489 121.9150401 -122.47039986 117.84280968 C-122.47395173 116.3555841 -122.49949159 114.86820753 -122.54967117 113.38182449 C-122.89877428 102.49928002 -122.89877428 102.49928002 -119.73790908 98.33876061 C-116.67170783 95.1795975 -113.24486567 92.60551124 -109.61776006 90.12774718 C-107.21382508 88.45195424 -104.99206748 86.57161015 -102.75 84.6875 C-101.86828125 83.96949219 -100.9865625 83.25148438 -100.078125 82.51171875 C-96.20819893 79.35389837 -92.35413043 76.17706486 -88.5 73 C-81.17549408 66.96446587 -73.83496707 60.94905695 -66.484375 54.9453125 C-63.65453372 52.63229852 -60.82643455 50.31717459 -58 48 C-57.36255859 47.47744629 -56.72511719 46.95489258 -56.06835938 46.41650391 C-48.15044965 39.92151751 -40.25999197 33.40014489 -32.46142578 26.76220703 C-28.57441495 23.46246885 -24.60954936 20.27499491 -20.61328125 17.109375 C-16.87157563 14.08916419 -13.21088481 10.97604152 -9.55273438 7.85546875 C-6.41216585 5.17915818 -3.2360196 2.56010423 0 0 Z " fill="#202020" transform="translate(184,29)"/>
<path d="M0 0 C23 0 23 0 29.75 5.8125 C31.35327148 7.74804688 31.35327148 7.74804688 32.43359375 9.40625 C34.89113004 12.95402844 37.69060325 15.84819387 40.8125 18.8125 C43.77887665 21.70529212 46.59211239 24.65442725 49.29296875 27.79296875 C53.15271346 32.24756761 57.2966551 36.37184911 61.5 40.5 C65.5495833 44.47713995 69.56637392 48.42769882 73.25 52.75 C78.32789387 58.6519635 83.9646028 64.03236342 89.5 69.5 C101.74753917 81.59761301 101.74753917 81.59761301 105.65625 86.15625 C109.86282932 90.99185053 114.46798378 95.46798378 119 100 C119.33 67 119.66 34 120 0 C128.25 0 136.5 0 145 0 C145 46.86 145 93.72 145 142 C124 142 124 142 118.625 138 C117.37894089 136.36134692 116.17601708 134.68962453 115 133 C109.3406884 126.0254113 102.88398584 119.79840416 96.5 113.5 C90.68873112 107.76663514 84.93042041 102.05781501 79.62304688 95.84570312 C76.74371445 92.57137202 73.61366413 89.54946487 70.5 86.5 C66.76874891 82.84568193 63.11519337 79.18935403 59.71875 75.21875 C55.10222824 69.86483106 50.03037656 64.95957367 45 60 C39.2623801 54.34313749 33.56403812 48.7024507 28.33984375 42.55859375 C27.27935864 41.32496821 26.15031749 40.15031749 25 39 C24.67 72.99 24.34 106.98 24 142 C16.08 142 8.16 142 0 142 C0 95.14 0 48.28 0 0 Z " fill="#232323" transform="translate(112,143)"/>
<path d="M0 0 C0.33 0 0.66 0 1 0 C1 48.84 1 97.68 1 148 C6.94 148 12.88 148 19 148 C18.99777939 146.28222855 18.99555878 144.56445709 18.99327087 142.79463196 C18.97301797 126.6231448 18.95795743 110.45166071 18.94818783 94.28016376 C18.94303143 85.9658234 18.93600121 77.6514925 18.92456055 69.3371582 C18.91459369 62.0904355 18.90814179 54.84371965 18.90591151 47.59699029 C18.90460781 43.75988077 18.90154346 39.92279087 18.89426994 36.08568764 C18.88747818 32.47343033 18.88538948 28.8612007 18.88689232 25.24893761 C18.88648642 23.29254173 18.88110767 21.33614885 18.87557983 19.37976074 C18.8769545 18.21173416 18.87832916 17.04370758 18.87974548 15.84028625 C18.87882369 14.82723577 18.8779019 13.81418528 18.87695217 12.77043629 C18.99651208 10.07853083 19.39523727 7.62172448 20 5 C20.33 5 20.66 5 21 5 C21 52.85 21 100.7 21 150 C14.07 150 7.14 150 0 150 C0 100.5 0 51 0 0 Z " fill="#090909" transform="translate(65,134)"/>
<path d="M0 0 C0.66 0.33 1.32 0.66 2 1 C1.67 1.33 1.34 1.66 1 2 C0.89103629 3.98660977 0.85309514 5.97712642 0.84178162 7.96669006 C0.8319928 9.26384445 0.82220398 10.56099884 0.81211853 11.89746094 C0.80621356 13.3483883 0.80040316 14.79931606 0.79467773 16.25024414 C0.7851047 17.76761648 0.77509497 19.28498612 0.76467896 20.80235291 C0.73756149 24.9343761 0.7165891 29.06641081 0.69667697 33.19847417 C0.67485946 37.51201189 0.64745012 41.82551389 0.62062073 46.13902283 C0.57063639 54.31297526 0.52571894 62.48694747 0.48259836 70.66093868 C0.43327495 79.96431506 0.37833872 89.26765561 0.32291877 98.57099736 C0.20901062 117.7139652 0.10239002 136.85696733 0 156 C7.26 156 14.52 156 22 156 C22 107.82 22 59.64 22 10 C22.99 10.33 23.98 10.66 25 11 C24.67 11.66 24.34 12.32 24 13 C23.89439014 14.90023369 23.85336589 16.80417498 23.84178162 18.70730591 C23.8319928 19.92169342 23.82220398 21.13608093 23.81211853 22.38726807 C23.80621398 23.74011191 23.80040356 25.09295617 23.79467773 26.44580078 C23.78510161 27.86479988 23.77509169 29.2837961 23.76467896 30.70278931 C23.73759499 34.56203361 23.71660437 38.42129018 23.69667697 42.28057718 C23.67483892 46.31116897 23.64743958 50.34172277 23.62062073 54.37228394 C23.57066429 62.00787912 23.52573643 69.64349535 23.48259836 77.27913177 C23.43325117 85.97069441 23.37832372 94.66221894 23.32291877 103.35374475 C23.20905344 121.23579469 23.10242228 139.11788111 23 157 C15.08 157 7.16 157 -1 157 C-1.02311728 136.6773987 -1.04097834 116.35480109 -1.05181217 96.03218937 C-1.05697549 86.59673173 -1.06401887 77.16128239 -1.07543945 67.72583008 C-1.0853852 59.50496317 -1.09185317 51.28410226 -1.09408849 43.0632295 C-1.09539579 38.70757678 -1.09848281 34.35194125 -1.10573006 29.99629402 C-1.11248855 25.90143386 -1.11461731 21.80659808 -1.11310768 17.71173286 C-1.11338409 16.20441048 -1.11539022 14.69708733 -1.11920547 13.18976974 C-1.12413999 11.14072501 -1.12239819 9.09166736 -1.12025452 7.0426178 C-1.12117631 5.89314195 -1.1220981 4.7436661 -1.12304783 3.55935764 C-1 1 -1 1 0 0 Z " fill="#A9A9A9" transform="translate(64,128)"/>
<path d="M0 0 C0.99 0.33 1.98 0.66 3 1 C2.67 1.66 2.34 2.32 2 3 C1.89443335 4.88756673 1.8533695 6.7788611 1.84178162 8.66934204 C1.8319928 9.8753154 1.82220398 11.08128876 1.81211853 12.32380676 C1.80621399 13.66720541 1.80040357 15.01060448 1.79467773 16.35400391 C1.78510157 17.76315093 1.77509165 19.17229507 1.76467896 20.58143616 C1.73759543 24.41382168 1.71660457 28.24621957 1.69667697 32.07864809 C1.67483865 36.08121282 1.64743944 40.0837393 1.62062073 44.08627319 C1.57066466 51.66874428 1.52573666 59.25123657 1.48259836 66.83374918 C1.43325086 75.46485364 1.37832353 84.09591974 1.32291877 92.72698712 C1.20905401 110.48462248 1.10222477 128.24229402 1 146 C0.67 146 0.34 146 0 146 C0 97.82 0 49.64 0 0 Z " fill="#787878" transform="translate(86,138)"/>
<path d="M0 0 C1.11375 0.495 1.11375 0.495 2.25 1 C5.13883312 2.22782871 5.13883312 2.22782871 9 2 C9.28875 2.61875 9.5775 3.2375 9.875 3.875 C10.93720042 6.13325765 10.93720042 6.13325765 13 8 C13.69748583 9.31747324 14.36959957 10.64914193 15 12 C11.26427172 10.37228982 8.38341608 8.01966695 5.25 5.4375 C4.26515625 4.63183594 3.2803125 3.82617188 2.265625 2.99609375 C1.51796875 2.33738281 0.7703125 1.67867188 0 1 C0 0.67 0 0.34 0 0 Z " fill="#797979" transform="translate(259,122)"/>
<path d="M0 0 C1.32 0.33 2.64 0.66 4 1 C2.71937515 2.7074998 1.38232443 4.37373596 0 6 C-0.66 6 -1.32 6 -2 6 C-2.33 6.66 -2.66 7.32 -3 8 C-4.30915279 9.03145371 -5.64082143 10.03542166 -7 11 C-7.66 10.67 -8.32 10.34 -9 10 C-6.03 6.7 -3.06 3.4 0 0 Z " fill="#373737" transform="translate(77,117)"/>
<path d="M0 0 C3.375 0.3125 3.375 0.3125 7 1 C9 4 9 4 9 6 C9.96113866 7.36161311 10.95884159 8.69855198 12 10 C8.78727751 8.56006357 6.3793336 6.76981628 3.75 4.4375 C3.04359375 3.81746094 2.3371875 3.19742188 1.609375 2.55859375 C1.07828125 2.04425781 0.5471875 1.52992187 0 1 C0 0.67 0 0.34 0 0 Z " fill="#7C7C7C" transform="translate(219,89)"/>
<path d="M0 0 C2.3125 0.125 2.3125 0.125 5 1 C6.07074592 2.96303418 7.06295743 4.9697411 8 7 C10.56197123 9.81356892 10.56197123 9.81356892 13 12 C12.67 12.66 12.34 13.32 12 14 C7.40312076 9.64157559 3.54058858 5.25723759 0 0 Z " fill="#9F9F9F" transform="translate(222,269)"/>
<path d="M0 0 C3.74281699 2.38179263 6.97727468 4.74475735 10 8 C2.07880435 6.05706522 2.07880435 6.05706522 0 3 C0 2.01 0 1.02 0 0 Z M0 5 C0.99 5.495 0.99 5.495 2 6 C1.01 6.495 1.01 6.495 0 7 C0 6.34 0 5.68 0 5 Z " fill="#545454" transform="translate(289,116)"/>
<path d="M0 0 C0.598125 0.165 1.19625 0.33 1.8125 0.5 C4.11344336 1.1114124 4.11344336 1.1114124 7 1 C7.28875 1.763125 7.5775 2.52625 7.875 3.3125 C8.96269013 6.15029308 8.96269013 6.15029308 11 9 C8.03469503 7.64199529 5.70868729 6.07571737 3.25 3.9375 C2.63640625 3.41027344 2.0228125 2.88304688 1.390625 2.33984375 C0.93171875 1.89769531 0.4728125 1.45554687 0 1 C0 0.67 0 0.34 0 0 Z " fill="#757575" transform="translate(190,65)"/>
<path d="M0 0 C0.99 0.33 1.98 0.66 3 1 C2.67 1.66 2.34 2.32 2 3 C1.77141886 5.0374763 1.58975722 7.08040303 1.4375 9.125 C1.35371094 10.22070312 1.26992187 11.31640625 1.18359375 12.4453125 C1.12300781 13.28835937 1.06242187 14.13140625 1 15 C0.67 15 0.34 15 0 15 C0 10.05 0 5.1 0 0 Z " fill="#727272" transform="translate(86,138)"/>
<path d="M0 0 C0.66 0.66 1.32 1.32 2 2 C1.625 4.625 1.625 4.625 1 7 C-0.65 6.01 -2.3 5.02 -4 4 C-2.68 2.68 -1.36 1.36 0 0 Z " fill="#333333" transform="translate(148,185)"/>
<path d="M0 0 C0.99 0.99 1.98 1.98 3 3 C1.68 4.65 0.36 6.3 -1 8 C-1.66 7.67 -2.32 7.34 -3 7 C-2.34 6.01 -1.68 5.02 -1 4 C-0.36707617 1.88719655 -0.36707617 1.88719655 0 0 Z " fill="#6D6D6D" transform="translate(136,94)"/>
<path d="M0 0 C1.2065625 0.0309375 1.2065625 0.0309375 2.4375 0.0625 C0.7875 1.7125 -0.8625 3.3625 -2.5625 5.0625 C-3.125 3.125 -3.125 3.125 -3.5625 1.0625 C-2.5625 0.0625 -2.5625 0.0625 0 0 Z " fill="#707070" transform="translate(170.5625,68.9375)"/>
<path d="" fill="#FFFFFF" transform="translate(0,0)"/>
<path d="" fill="#FFFFFF" transform="translate(0,0)"/>
<path d="" fill="#FFFFFF" transform="translate(0,0)"/>
<path d="" fill="#FFFFFF" transform="translate(0,0)"/>
<path d="" fill="#FFFFFF" transform="translate(0,0)"/>
<path d="" fill="#FFFFFF" transform="translate(0,0)"/>
<path d="" fill="#FFFFFF" transform="translate(0,0)"/>
<path d="" fill="#FFFFFF" transform="translate(0,0)"/>
<path d="" fill="#FFFFFF" transform="translate(0,0)"/>
<path d="" fill="#FFFFFF" transform="translate(0,0)"/>
<path d="" fill="#FFFFFF" transform="translate(0,0)"/>
<path d="" fill="#FFFFFF" transform="translate(0,0)"/>
<path d="" fill="#FFFFFF" transform="translate(0,0)"/>
</svg>
