<?xml version="1.0" standalone="no"?>
<!DOCTYPE svg PUBLIC "-//W3C//DTD SVG 20010904//EN"
 "http://www.w3.org/TR/2001/REC-SVG-20010904/DTD/svg10.dtd">
<svg version="1.0" xmlns="http://www.w3.org/2000/svg"
 width="1024.000000pt" height="1024.000000pt" viewBox="0 0 1024.000000 1024.000000"
 preserveAspectRatio="xMidYMid meet">

<g transform="translate(0.000000,1024.000000) scale(0.100000,-0.100000)"
fill="#000000" stroke="none">
<path d="M5050 7803 c-36 -31 -229 -191 -430 -356 -201 -165 -443 -365 -537
-444 l-173 -143 0 -770 0 -770 115 0 115 0 0 719 0 719 486 405 487 405 241
-200 c132 -110 355 -293 493 -407 l253 -206 0 -717 0 -718 115 0 115 0 0 768
0 769 -28 25 c-15 14 -137 115 -272 224 -293 237 -608 497 -782 646 -69 59
-128 108 -130 108 -1 0 -32 -26 -68 -57z"/>
<path d="M4400 6020 l0 -700 115 0 116 0 -3 531 -3 531 80 -84 c44 -46 246
-256 450 -467 203 -211 396 -412 428 -447 l59 -64 94 0 94 0 0 700 0 700 -110
0 -110 0 0 -510 c0 -280 -3 -509 -7 -509 -9 2 -175 173 -673 692 l-314 327
-108 0 -108 0 0 -700z"/>
<path d="M2375 4646 c-138 -44 -248 -149 -297 -284 -30 -83 -30 -236 0 -312
49 -126 128 -207 239 -251 84 -32 234 -33 318 -1 162 61 269 205 282 379 17
223 -110 416 -309 469 -65 17 -179 17 -233 0z m210 -70 c117 -54 185 -186 185
-361 0 -85 -20 -186 -46 -236 -24 -47 -84 -108 -125 -130 -26 -13 -59 -19
-101 -19 -156 0 -262 113 -290 308 -28 201 47 392 176 448 50 22 143 17 201
-10z"/>
<path d="M6113 4641 c-185 -64 -303 -234 -303 -438 0 -225 145 -395 367 -426
365 -53 620 324 448 664 -47 91 -141 167 -248 201 -76 24 -195 23 -264 -1z
m253 -76 c59 -37 105 -95 135 -172 30 -76 34 -267 7 -353 -42 -135 -130 -210
-248 -210 -180 0 -300 157 -300 392 0 176 57 299 163 353 44 22 62 26 123 23
58 -3 80 -9 120 -33z"/>
<path d="M7803 4639 c-122 -47 -168 -167 -114 -302 20 -52 95 -111 222 -176
174 -90 217 -134 204 -212 -14 -79 -69 -119 -168 -119 -87 0 -172 42 -228 112
-21 27 -42 61 -45 74 -13 52 -24 20 -24 -71 l0 -95 41 -20 c58 -30 183 -60
248 -60 76 0 167 25 216 58 60 42 85 93 85 176 0 129 -49 186 -240 281 -168
84 -210 125 -210 202 0 129 199 167 313 59 16 -14 39 -51 53 -81 14 -30 29
-55 32 -55 4 0 6 42 5 92 -1 91 -2 93 -30 110 -82 49 -266 63 -360 27z"/>
<path d="M1195 4641 c-3 -6 7 -16 22 -23 60 -28 63 -50 63 -406 0 -354 -4
-383 -56 -402 -15 -6 -25 -12 -23 -15 9 -8 213 -7 216 1 2 5 -10 15 -26 21
-46 17 -51 55 -51 371 l0 284 178 -240 c97 -132 212 -288 255 -347 69 -94 82
-106 105 -103 l27 3 5 395 c3 217 9 403 14 413 4 10 17 22 27 28 39 20 17 29
-75 29 -96 0 -129 -12 -82 -30 48 -18 51 -36 54 -330 2 -151 1 -273 -1 -270
-9 9 -392 534 -425 583 l-33 47 -94 0 c-52 0 -96 -4 -100 -9z"/>
<path d="M2905 4640 c-3 -6 5 -14 19 -20 14 -5 32 -20 41 -34 9 -14 90 -200
179 -413 159 -381 163 -388 192 -391 l30 -3 119 298 c177 445 199 493 240 529
19 17 32 34 28 37 -10 11 -191 8 -198 -3 -3 -6 5 -14 19 -20 52 -19 40 -67
-109 -447 -71 -179 -95 -228 -95 -193 0 6 -52 136 -115 290 -63 154 -115 293
-115 310 0 23 6 33 25 42 14 6 25 15 25 20 0 12 -277 10 -285 -2z"/>
<path d="M3841 4266 c-149 -374 -190 -456 -227 -456 -8 0 -14 -4 -14 -10 0 -6
42 -10 105 -10 58 0 105 3 105 8 0 4 -9 13 -19 19 -35 22 -35 64 0 167 l33 96
150 0 151 0 38 -97 c43 -112 48 -162 17 -170 -53 -14 -7 -23 120 -23 l141 0
-39 38 c-27 26 -51 66 -80 137 -22 55 -95 231 -160 390 -107 261 -122 290
-144 293 -23 3 -31 -15 -177 -382z m259 -133 c0 -2 -57 -3 -126 -3 -97 0 -125
3 -121 13 10 24 96 242 107 272 11 29 13 25 76 -125 35 -85 64 -156 64 -157z"/>
<path d="M4896 4641 c-3 -4 6 -13 20 -19 13 -7 29 -23 34 -38 13 -34 13 -704
0 -739 -5 -14 -21 -30 -35 -35 -14 -5 -25 -12 -25 -15 0 -3 61 -5 135 -5 83 0
135 4 135 10 0 6 -6 10 -14 10 -8 0 -22 10 -30 22 -13 18 -16 56 -16 200 l0
178 205 0 205 0 0 -169 c0 -178 -7 -220 -40 -228 -51 -13 -9 -23 100 -23 66 0
123 0 127 -1 4 0 9 4 11 10 2 6 -3 11 -12 11 -8 0 -22 10 -30 22 -14 19 -16
73 -16 380 0 370 3 401 41 411 11 3 19 10 19 16 0 7 -43 11 -130 11 -71 0
-130 -3 -130 -6 0 -3 14 -19 30 -34 l30 -28 0 -161 0 -161 -206 0 -205 0 3
166 3 166 28 22 c15 12 27 25 27 29 0 10 -258 9 -264 -2z"/>
<path d="M6765 4640 c-3 -6 5 -14 18 -19 41 -16 46 -50 50 -346 4 -320 9 -348
82 -420 60 -60 123 -80 255 -80 125 0 190 23 245 88 58 67 63 100 70 416 5
301 8 316 55 341 38 20 10 30 -85 30 -99 0 -123 -10 -78 -32 46 -22 52 -59 52
-325 1 -266 -6 -322 -49 -381 -42 -58 -88 -77 -190 -77 -100 0 -137 16 -174
73 -40 61 -48 133 -44 420 l3 264 28 22 c15 12 27 25 27 29 0 11 -258 8 -265
-3z"/>
<path d="M8365 4640 c-3 -5 5 -14 18 -19 13 -5 28 -18 33 -28 13 -28 17 -684
4 -732 -6 -23 -14 -41 -18 -41 -5 0 -17 -7 -28 -15 -17 -13 15 -14 282 -15
l302 0 25 102 c27 106 26 131 -1 88 -35 -54 -108 -118 -147 -129 -22 -6 -91
-11 -152 -11 l-113 0 0 185 0 185 73 0 c98 0 141 -14 174 -55 16 -19 31 -35
36 -35 4 0 7 50 7 110 0 61 -3 110 -6 110 -3 0 -18 -13 -33 -29 -34 -36 -85
-51 -178 -51 l-73 0 0 165 0 165 125 0 c84 0 137 -5 158 -14 41 -17 83 -66 92
-106 10 -45 34 -39 28 8 -2 20 -7 66 -11 102 l-7 65 -292 3 c-190 1 -294 -1
-298 -8z"/>
<path d="M1921 3247 c-111 -57 -79 -236 43 -240 74 -2 116 46 116 130 0 55
-17 86 -60 108 -35 18 -67 19 -99 2z m113 -71 c17 -36 18 -43 5 -80 -35 -100
-163 -55 -145 52 8 53 32 74 80 70 37 -3 43 -7 60 -42z"/>
<path d="M2490 3133 l0 -123 80 0 c63 0 80 3 80 15 0 10 -16 15 -62 17 l-61 3
-1 33 c-1 32 -1 32 47 32 40 0 47 3 47 20 0 17 -7 20 -48 20 l-48 0 -1 35 -1
35 64 0 c49 0 64 3 64 14 0 11 -19 15 -80 18 l-80 3 0 -122z"/>
<path d="M2757 3253 c-1 -1 -1 -56 1 -122 3 -106 5 -121 20 -121 14 0 17 8 14
46 -4 45 -4 45 24 42 22 -2 34 -13 52 -45 17 -32 30 -43 47 -43 l24 0 -26 45
-25 45 23 19 c29 23 31 81 5 110 -14 15 -33 20 -88 23 -38 2 -70 2 -71 1z
m134 -57 c19 -40 -3 -66 -56 -66 l-45 0 0 45 0 45 45 0 c38 0 47 -4 56 -24z"/>
<path d="M3218 3167 l-3 -90 -59 87 c-38 55 -66 86 -78 86 -16 0 -18 -11 -18
-120 0 -115 1 -120 21 -120 19 0 20 5 17 85 -2 47 -1 85 2 85 3 -1 31 -39 63
-85 39 -58 64 -85 77 -85 19 0 20 8 20 119 0 110 -2 119 -20 124 -18 5 -19 -1
-22 -86z"/>
<path d="M3647 3252 c-19 -4 -21 -7 -73 -150 -34 -92 -34 -93 -12 -90 15 2 25
13 32 36 9 32 10 33 60 30 47 -3 51 -5 60 -35 7 -25 15 -33 31 -33 22 0 21 3
-22 118 -25 64 -48 120 -51 123 -4 3 -15 4 -25 1z m37 -120 c7 -20 4 -22 -29
-22 -34 0 -37 2 -31 25 3 13 11 37 17 52 l11 28 13 -31 c7 -17 16 -40 19 -52z"/>
<path d="M4220 3238 c-112 -76 -47 -256 84 -231 27 6 76 45 76 63 0 17 -36 11
-55 -10 -32 -35 -87 -25 -110 21 -36 68 -2 139 66 139 28 0 42 -6 51 -20 14
-22 48 -27 48 -7 0 24 -47 59 -87 64 -29 4 -46 -1 -73 -19z"/>
<path d="M4840 3134 c0 -118 1 -124 20 -124 20 0 20 5 18 122 -3 106 -5 121
-20 124 -16 2 -18 -9 -18 -122z"/>
<path d="M4990 3238 c0 -14 9 -18 41 -18 l40 0 -3 -105 c-3 -95 -1 -105 15
-105 15 0 17 12 17 105 l0 105 40 0 c28 0 40 4 40 14 0 12 -21 15 -95 18 -85
3 -95 1 -95 -14z"/>
<path d="M5290 3133 l0 -123 80 0 c64 0 80 3 80 15 0 12 -13 15 -60 15 l-60 0
0 35 c0 35 0 35 45 35 38 0 45 3 45 20 0 17 -7 20 -45 20 -45 0 -45 0 -45 35
l0 35 61 0 c50 0 60 3 57 16 -2 13 -18 16 -81 17 l-77 2 0 -122z"/>
<path d="M5635 3250 c-69 -28 -96 -127 -53 -190 43 -64 127 -70 177 -13 21 24
22 28 8 31 -9 2 -29 -6 -43 -17 -35 -28 -69 -26 -99 4 -32 31 -34 91 -4 129
26 33 81 36 106 6 16 -18 53 -28 53 -14 0 17 -24 46 -50 59 -32 16 -64 18 -95
5z"/>
<path d="M5870 3238 c0 -12 10 -18 36 -20 l37 -3 -2 -102 c-2 -98 -1 -103 18
-103 20 0 21 6 21 105 l0 105 40 0 c28 0 40 4 40 14 0 12 -21 15 -95 18 -84 3
-95 1 -95 -14z"/>
<path d="M6170 3160 c0 -82 3 -101 20 -122 38 -49 127 -42 155 13 10 18 15 58
15 112 0 76 -2 85 -20 90 -19 5 -20 0 -20 -88 0 -104 -10 -125 -59 -125 -44 0
-52 20 -54 121 -2 79 -4 92 -19 95 -16 2 -18 -8 -18 -96z"/>
<path d="M6480 3133 c0 -116 1 -123 20 -123 17 0 20 7 20 45 0 41 2 45 25 45
20 0 30 -9 47 -45 17 -35 27 -45 46 -45 l24 0 -26 44 -26 45 25 25 c28 29 32
70 9 101 -12 16 -30 21 -89 25 l-75 5 0 -122z m128 75 c7 -7 12 -21 12 -33 0
-31 -19 -45 -62 -45 l-38 0 0 45 0 45 38 0 c21 0 43 -5 50 -12z"/>
<path d="M6770 3133 l0 -123 80 0 c64 0 80 3 80 15 0 12 -13 15 -60 15 l-60 0
0 35 c0 35 0 35 45 35 38 0 45 3 45 20 0 17 -7 20 -45 20 -45 0 -45 0 -45 35
l0 35 60 0 c45 0 60 4 60 14 0 11 -19 15 -80 18 l-80 3 0 -122z"/>
<path d="M7236 3239 c-30 -24 -35 -69 -10 -90 9 -8 35 -21 57 -29 44 -17 63
-39 54 -64 -10 -24 -73 -22 -89 4 -13 20 -48 28 -48 11 0 -5 8 -18 18 -30 40
-49 137 -42 156 12 15 43 -8 76 -72 99 -43 16 -53 24 -50 40 5 37 33 45 67 20
35 -25 51 -28 51 -8 0 22 -49 56 -80 56 -15 0 -39 -9 -54 -21z"/>
<path d="M7768 3252 c-15 -3 -18 -15 -18 -83 0 -45 6 -94 14 -113 24 -57 110
-70 155 -22 16 17 20 38 23 118 3 86 1 98 -14 102 -16 4 -18 -5 -18 -77 0 -99
-14 -131 -56 -135 -47 -5 -58 18 -64 122 -4 80 -7 91 -22 88z"/>
<path d="M8370 3134 c0 -117 1 -124 20 -124 19 0 20 7 20 119 0 110 -1 119
-20 124 -19 5 -20 0 -20 -119z"/>
<path d="M8578 3245 c-76 -43 -78 -185 -3 -225 36 -19 92 -16 124 8 32 23 54
86 46 130 -14 77 -103 123 -167 87z m108 -46 c29 -32 26 -115 -5 -140 -76 -62
-165 48 -108 134 23 35 84 38 113 6z"/>
<path d="M1510 3130 c0 -113 1 -120 20 -120 19 0 20 7 21 93 l0 92 37 -72 c20
-40 41 -73 48 -73 6 0 26 33 45 73 33 70 34 71 37 37 2 -19 2 -60 0 -92 -3
-54 -1 -58 19 -58 21 0 21 3 20 120 l-2 120 -26 0 c-21 0 -30 -10 -59 -71
l-34 -70 -35 70 c-31 63 -39 71 -63 71 l-28 0 0 -120z"/>
<path d="M2180 3130 l0 -120 55 0 c70 0 112 21 131 65 18 44 18 79 -1 115 -24
46 -52 60 -122 60 l-63 0 0 -120z m135 65 c44 -43 27 -125 -28 -145 -65 -22
-67 -19 -67 80 l0 90 35 0 c25 0 44 -8 60 -25z"/>
<path d="M3880 3130 c0 -113 1 -120 20 -120 17 0 20 7 20 45 0 41 2 45 24 45
18 0 30 -11 48 -42 15 -29 31 -44 47 -46 l24 -4 -27 47 -26 47 25 20 c32 25
34 79 5 108 -16 16 -33 20 -90 20 l-70 0 0 -120z m128 78 c7 -7 12 -21 12 -33
0 -31 -19 -45 -62 -45 l-38 0 0 45 0 45 38 0 c21 0 43 -5 50 -12z"/>
<path d="M4510 3130 c0 -113 1 -120 20 -120 18 0 20 7 20 55 l0 55 60 0 60 0
0 -55 c0 -48 2 -55 20 -55 19 0 20 7 20 120 0 113 -1 120 -20 120 -17 0 -20
-7 -20 -50 l0 -50 -60 0 -60 0 0 50 c0 43 -3 50 -20 50 -19 0 -20 -7 -20 -120z"/>
<path d="M7470 3235 c0 -11 11 -15 40 -15 l40 0 0 -105 c0 -98 1 -105 20 -105
19 0 20 7 20 105 l0 105 35 0 c24 0 35 5 35 15 0 12 -17 15 -95 15 -78 0 -95
-3 -95 -15z"/>
<path d="M8060 3130 l0 -120 55 0 c101 0 152 50 142 139 -4 34 -13 52 -36 73
-27 25 -39 28 -96 28 l-65 0 0 -120z m135 65 c18 -17 25 -35 25 -63 0 -52 -24
-80 -77 -88 l-43 -7 0 92 0 91 35 0 c25 0 44 -8 60 -25z"/>
</g>
</svg>
